<svg xmlns="http://www.w3.org/2000/svg" viewBox="0 0 1320.56 78.45"><g id="Layer_2" data-name="Layer 2"><g id="Layer_1-2" data-name="Layer 1"><path d="M111,.44,84.54,78H80.78L55.51,5.65,30.36,78H26.48L0,.44H4L28.48,72.58,53.74.44H57.4L82.55,72.69,107.26.44Z"/><path d="M195.13,74.57V78H142.72V.44h50.86V3.88h-47.1v33h42.11v3.43H146.48V74.57Z"/><path d="M293.08.44V78H290L234.91,7.31V78h-3.77V.44h3.1l55.07,70.7V.44Z"/><path d="M335.85.44h29.92a45,45,0,0,1,21.44,5,36,36,0,0,1,14.51,13.79,38.84,38.84,0,0,1,5.15,20,38.85,38.85,0,0,1-5.15,20A36,36,0,0,1,387.21,73a45,45,0,0,1-21.44,5H335.85Zm29.69,74.13A41.23,41.23,0,0,0,385.32,70a32.62,32.62,0,0,0,13.13-12.58,35.61,35.61,0,0,0,4.66-18.23A35.6,35.6,0,0,0,398.45,21,32.62,32.62,0,0,0,385.32,8.42a41.23,41.23,0,0,0-19.78-4.54H339.62V74.57Z"/><path d="M460.28,51.52V78h-3.77V51.52L425.16.44h4.1l29.25,47.43L487.76.44h4Z"/><path d="M625.49.44V78h-3.1L567.32,7.31V78h-3.77V.44h3.1l55.07,70.7V.44Z"/><path d="M733,38.45,714.46,57.51V78H710.7V.44h3.76V52.63L765.21.44h4.66L735.52,35.9,772.3,78h-4.65Z"/><path d="M854.74,74.57V78H802.33V.44h50.86V3.88H806.1v33h42.1v3.43H806.1V74.57Z"/><path d="M894.35,75.46a29.25,29.25,0,0,1-11.69-7.76l2-2.66a28.1,28.1,0,0,0,10.8,7.26,38.88,38.88,0,0,0,14.8,2.83q11.63,0,17.56-4.6a14.31,14.31,0,0,0,5.93-11.8,12.65,12.65,0,0,0-3.11-8.92,19.58,19.58,0,0,0-7.64-5.1,109.56,109.56,0,0,0-12.41-3.6A113.87,113.87,0,0,1,897.07,37a21.61,21.61,0,0,1-8.64-6.1q-3.55-4.1-3.55-11a18.28,18.28,0,0,1,2.88-10,19.89,19.89,0,0,1,8.81-7.26Q902.49,0,911.36,0a42.56,42.56,0,0,1,12.47,1.88A32.9,32.9,0,0,1,934.3,7.09l-1.66,3A34.13,34.13,0,0,0,922.5,5a37.64,37.64,0,0,0-11-1.72q-11.29,0-17.12,4.71a14.7,14.7,0,0,0-5.81,11.91,12.71,12.71,0,0,0,3.16,9,20.55,20.55,0,0,0,7.75,5.15,103.56,103.56,0,0,0,12.36,3.65,125.32,125.32,0,0,1,13.51,4,21,21,0,0,1,8.59,6q3.5,4,3.49,10.81a18.05,18.05,0,0,1-2.93,10,19.75,19.75,0,0,1-9,7.2,37.79,37.79,0,0,1-15.07,2.66A43.38,43.38,0,0,1,894.35,75.46Z"/><path d="M975.68,75.46A29.25,29.25,0,0,1,964,67.7L966,65a28.1,28.1,0,0,0,10.8,7.26,38.87,38.87,0,0,0,14.79,2.83q11.64,0,17.57-4.6a14.31,14.31,0,0,0,5.93-11.8,12.65,12.65,0,0,0-3.11-8.92,19.58,19.58,0,0,0-7.64-5.1,109.56,109.56,0,0,0-12.41-3.6A113.87,113.87,0,0,1,978.4,37a21.61,21.61,0,0,1-8.64-6.1q-3.56-4.1-3.55-11a18.28,18.28,0,0,1,2.88-10,19.89,19.89,0,0,1,8.81-7.26Q983.83,0,992.69,0a42.56,42.56,0,0,1,12.47,1.88,32.9,32.9,0,0,1,10.47,5.21l-1.66,3a34.13,34.13,0,0,0-10.14-5,37.64,37.64,0,0,0-11-1.72q-11.29,0-17.12,4.71a14.7,14.7,0,0,0-5.81,11.91A12.71,12.71,0,0,0,973,29a20.55,20.55,0,0,0,7.75,5.15,103,103,0,0,0,12.36,3.65,125.32,125.32,0,0,1,13.51,4,21.07,21.07,0,0,1,8.59,6q3.5,4,3.49,10.81a18.05,18.05,0,0,1-2.93,10,19.75,19.75,0,0,1-9,7.2,37.79,37.79,0,0,1-15.07,2.66A43.38,43.38,0,0,1,975.68,75.46Z"/><path d="M1127.32,78l-.11-69.92-34,59.17h-2L1057.07,8.31V78h-3.66V.44h3.11l35.67,62.05,35.57-62h3.11L1131,78Z"/><path d="M1320.56.44V78h-3.1l-55.07-70.7V78h-3.77V.44h3.1l55.07,70.7V.44Z"/><path d="M1244.14,77.64h-90.76L1198.76,1Zm-85.5-3h80.24L1198.76,6.91Z"/></g></g></svg>