<svg xmlns="http://www.w3.org/2000/svg" viewBox="0 0 444.23 391.8"><defs><style>.cls-1{fill:none;}</style></defs><g id="Layer_2" data-name="Layer 2"><g id="Layer_1-2" data-name="Layer 1"><path d="M143.33,382.11a11.36,11.36,0,0,1-.65,3.95,8.42,8.42,0,0,1-1.86,3,7.74,7.74,0,0,1-2.85,1.89,9.93,9.93,0,0,1-3.69.66h-6.91v-19h6.91a9.93,9.93,0,0,1,3.69.66,8,8,0,0,1,2.85,1.89,8.51,8.51,0,0,1,1.86,3A11.34,11.34,0,0,1,143.33,382.11Zm-1.42,0a10.52,10.52,0,0,0-.55-3.54,7.45,7.45,0,0,0-1.55-2.63,6.48,6.48,0,0,0-2.4-1.63,8.27,8.27,0,0,0-3.13-.56h-5.53v16.74h5.53a8.47,8.47,0,0,0,3.13-.56,6.5,6.5,0,0,0,2.4-1.64,7.45,7.45,0,0,0,1.55-2.63A10.5,10.5,0,0,0,141.91,382.11Z"/><path d="M159.11,372.63v1.14h-10v7.67h8.31v1.11h-8.31v7.91h10v1.14H147.74v-19Z"/><path d="M161,372.63h1.09a.52.52,0,0,1,.31.1.68.68,0,0,1,.18.26L169,388.73a8.49,8.49,0,0,1,.41,1.32,7.61,7.61,0,0,1,.39-1.32L176.27,373a.76.76,0,0,1,.19-.25.5.5,0,0,1,.32-.11h1.07l-7.83,19H168.8Z"/><path d="M192.23,372.63v1.14h-10v7.67h8.31v1.11h-8.31v7.91h10v1.14H180.87v-19Z"/><path d="M198.08,390.43h9v1.17H196.71v-19h1.37Z"/><path d="M226.27,382.11a11.48,11.48,0,0,1-.66,4,8.76,8.76,0,0,1-1.85,3,8.12,8.12,0,0,1-2.85,2,10.13,10.13,0,0,1-7.35,0,8.16,8.16,0,0,1-2.86-2,8.91,8.91,0,0,1-1.85-3,11.48,11.48,0,0,1-.67-4,11.36,11.36,0,0,1,.67-4,8.86,8.86,0,0,1,1.85-3.06,8.16,8.16,0,0,1,2.86-2,9.29,9.29,0,0,1,3.66-.7,9.55,9.55,0,0,1,3.69.69,8.12,8.12,0,0,1,2.85,2,8.84,8.84,0,0,1,1.85,3.07A11.36,11.36,0,0,1,226.27,382.11Zm-1.42,0a11.05,11.05,0,0,0-.55-3.57,7.93,7.93,0,0,0-1.55-2.68,6.72,6.72,0,0,0-2.41-1.68,8.06,8.06,0,0,0-3.12-.58,7.91,7.91,0,0,0-3.09.58,6.81,6.81,0,0,0-2.41,1.68,7.66,7.66,0,0,0-1.57,2.68,11.66,11.66,0,0,0,0,7.14,7.66,7.66,0,0,0,1.57,2.68,6.66,6.66,0,0,0,2.41,1.67,7.91,7.91,0,0,0,3.09.58,8.06,8.06,0,0,0,3.12-.58,6.57,6.57,0,0,0,2.41-1.67,7.93,7.93,0,0,0,1.55-2.68A11,11,0,0,0,224.85,382.11Z"/><path d="M232.5,384v7.64h-1.37v-19H236a7.55,7.55,0,0,1,5,1.46,5.23,5.23,0,0,1,1.7,4.17,5.55,5.55,0,0,1-.47,2.29,5.16,5.16,0,0,1-1.33,1.81,6.3,6.3,0,0,1-2.12,1.18A8.78,8.78,0,0,1,236,384Zm0-1.1H236a6.81,6.81,0,0,0,2.25-.35,4.93,4.93,0,0,0,1.68-1,4.25,4.25,0,0,0,1.06-1.46,4.44,4.44,0,0,0,.37-1.83A4.22,4.22,0,0,0,240,374.9a5.91,5.91,0,0,0-4-1.18H232.5Z"/><path d="M256.11,386.88l.16-.42c.06-.14.13-.27.2-.4l7.45-13.17a.46.46,0,0,1,.22-.22,1.06,1.06,0,0,1,.29,0h.95v19h-1.2V375.43a6.29,6.29,0,0,1,0-.73L256.75,388a.58.58,0,0,1-.54.35H256a.61.61,0,0,1-.54-.35l-7.66-13.27c0,.26,0,.51,0,.75V391.6h-1.2v-19h.94a1.08,1.08,0,0,1,.3,0,.46.46,0,0,1,.22.22l7.66,13.19A6.44,6.44,0,0,1,256.11,386.88Z"/><path d="M282.38,372.63v1.14h-10v7.67h8.31v1.11h-8.31v7.91h10v1.14H271v-19Z"/><path d="M287.82,372.68a.61.61,0,0,1,.23.21l12.28,16.43a6.91,6.91,0,0,1,0-.78V372.63h1.21v19h-.66a.58.58,0,0,1-.5-.27L288,374.87a6.85,6.85,0,0,1,0,.77v16h-1.19v-19h.67A.76.76,0,0,1,287.82,372.68Z"/><path d="M319.51,372.63v1.17h-6.66v17.8h-1.37V373.8h-6.7v-1.17Z"/><path d="M85,256.3l-.55.9a.45.45,0,0,1-.25.21.58.58,0,0,1-.32,0l-5.88-1-4.89,8,3.54,4.79a.57.57,0,0,1,.11.29.48.48,0,0,1-.07.33l-.55.9L64,254.14l.72-1.17Zm-12.54,7.22,4.46-7.25-10.22-1.73a4.19,4.19,0,0,1-.53-.11c-.2,0-.41-.1-.62-.16l.42.48c.13.16.25.3.35.44Z"/><path d="M86.82,235.13a11.41,11.41,0,0,1,3,2.63,8.5,8.5,0,0,1,1.58,3.15,7.92,7.92,0,0,1,.12,3.43,10.11,10.11,0,0,1-1.37,3.49l-3.63,5.91-16.19-10,3.63-5.9a9.85,9.85,0,0,1,2.49-2.8,8,8,0,0,1,3.11-1.45,8.51,8.51,0,0,1,3.52,0A11.05,11.05,0,0,1,86.82,235.13Zm-.74,1.21A10.67,10.67,0,0,0,82.77,235a7.37,7.37,0,0,0-3.06,0,6.64,6.64,0,0,0-2.66,1.19,8.73,8.73,0,0,0-2.12,2.37L72,243.19,86.32,252l2.91-4.72a8.6,8.6,0,0,0,1.16-3,6.62,6.62,0,0,0-.14-2.91,7.48,7.48,0,0,0-1.43-2.71A10.85,10.85,0,0,0,86.08,236.34Z"/><path d="M79.36,229.14l.57-.93a.42.42,0,0,1,.25-.21.68.68,0,0,1,.32,0l16.82,2.74a8.44,8.44,0,0,1,1.34.33,7.19,7.19,0,0,1-.92-1l-10-13.76a.64.64,0,0,1-.11-.3.46.46,0,0,1,.07-.32l.57-.92,12.08,16.64-.64,1Z"/><path d="M106.45,203.2a11.6,11.6,0,0,1,3.06,2.66,9,9,0,0,1,1.64,3.18,8.22,8.22,0,0,1,.17,3.46A9.52,9.52,0,0,1,110,216a9.31,9.31,0,0,1-2.51,2.76,8.16,8.16,0,0,1-3.17,1.42,9.19,9.19,0,0,1-3.58,0,12.39,12.39,0,0,1-6.8-4.18,9,9,0,0,1-1.63-3.19,8.42,8.42,0,0,1-.18-3.47A10.11,10.11,0,0,1,96,203.06a8,8,0,0,1,3.18-1.41,9,9,0,0,1,3.58,0A11.57,11.57,0,0,1,106.45,203.2Zm-.75,1.22a11,11,0,0,0-3.33-1.41,7.76,7.76,0,0,0-3.1-.08,6.51,6.51,0,0,0-2.7,1.17,8.16,8.16,0,0,0-2.14,2.36,8,8,0,0,0-1.12,2.94,6.82,6.82,0,0,0,.17,2.95A7.56,7.56,0,0,0,95,215.09a11.71,11.71,0,0,0,6.09,3.75,7.74,7.74,0,0,0,3.1.06,6.66,6.66,0,0,0,2.7-1.18,7.94,7.94,0,0,0,2.11-2.33,8.17,8.17,0,0,0,1.15-3,6.43,6.43,0,0,0-.17-2.93,7.45,7.45,0,0,0-1.47-2.73A10.79,10.79,0,0,0,105.7,204.42Z"/><path d="M121.4,190.94a.3.3,0,0,1,.2-.15l.77-.15a8.79,8.79,0,0,1,.29,1.69,8,8,0,0,1-.06,1.75,9.54,9.54,0,0,1-.48,1.83,11.77,11.77,0,0,1-1,2,9.21,9.21,0,0,1-2.49,2.72,8,8,0,0,1-3.15,1.38,9,9,0,0,1-3.57-.05,11.57,11.57,0,0,1-3.76-1.53,11.09,11.09,0,0,1-3-2.65,8.94,8.94,0,0,1-1.62-3.23,8.47,8.47,0,0,1-.15-3.55,9.6,9.6,0,0,1,1.38-3.59,10.63,10.63,0,0,1,1.12-1.53,9.27,9.27,0,0,1,1.22-1.14,7.11,7.11,0,0,1,1.35-.81,9.78,9.78,0,0,1,1.52-.58l.29.67a.36.36,0,0,1,0,.37.63.63,0,0,1-.29.19l-.54.22c-.22.09-.47.21-.76.36a5.5,5.5,0,0,0-.9.59,8.24,8.24,0,0,0-1,.93,9.1,9.1,0,0,0-1,1.35,8.23,8.23,0,0,0-1.15,3,7.14,7.14,0,0,0,.14,3,7.85,7.85,0,0,0,1.43,2.8,10.47,10.47,0,0,0,2.71,2.35,10.72,10.72,0,0,0,3.37,1.39,7.65,7.65,0,0,0,3.12,0,7.08,7.08,0,0,0,2.7-1.17,7.81,7.81,0,0,0,2.07-2.27,10.53,10.53,0,0,0,.84-1.62,7.25,7.25,0,0,0,.43-1.46,6.77,6.77,0,0,0,.09-1.41,9.56,9.56,0,0,0-.18-1.45.92.92,0,0,1,0-.16A.35.35,0,0,1,121.4,190.94Z"/><path d="M134.28,176.09l-.56.9a.41.41,0,0,1-.24.21.72.72,0,0,1-.33,0l-5.87-1-4.89,7.95,3.53,4.79a.5.5,0,0,1,.12.29.48.48,0,0,1-.07.33l-.55.9L113.3,173.93l.72-1.17Zm-12.54,7.22,4.46-7.26L116,174.33a4.71,4.71,0,0,1-.54-.11l-.62-.16.43.48.35.44Z"/><path d="M140.15,160.43a.32.32,0,0,1,.2-.14l.77-.16a8.94,8.94,0,0,1,.3,1.69,7.92,7.92,0,0,1-.07,1.75,9.44,9.44,0,0,1-.48,1.84,11.76,11.76,0,0,1-1,2,9.33,9.33,0,0,1-2.49,2.72,7.94,7.94,0,0,1-3.14,1.37,9,9,0,0,1-3.58,0,11.69,11.69,0,0,1-3.75-1.54,10.94,10.94,0,0,1-3-2.64,9,9,0,0,1-1.62-3.24,8.41,8.41,0,0,1-.15-3.54,9.88,9.88,0,0,1,1.38-3.59,10.75,10.75,0,0,1,1.12-1.54,9.13,9.13,0,0,1,1.22-1.13,7.15,7.15,0,0,1,1.35-.82,10.9,10.9,0,0,1,1.52-.58l.3.67a.38.38,0,0,1,0,.37.53.53,0,0,1-.28.19l-.55.23c-.22.09-.47.21-.76.35a6.5,6.5,0,0,0-.89.59,7.59,7.59,0,0,0-1,.93,8.13,8.13,0,0,0-1,1.36,8,8,0,0,0-1.16,3,7.14,7.14,0,0,0,.14,3,7.79,7.79,0,0,0,1.44,2.8,10,10,0,0,0,2.71,2.35,10.31,10.31,0,0,0,3.37,1.39,7.79,7.79,0,0,0,3.11.05,7,7,0,0,0,2.7-1.18,7.51,7.51,0,0,0,2.07-2.26,10.53,10.53,0,0,0,.84-1.62,6.58,6.58,0,0,0,.43-1.47,6.69,6.69,0,0,0,.09-1.41,9.72,9.72,0,0,0-.18-1.45.75.75,0,0,1,0-.15A.25.25,0,0,1,140.15,160.43Z"/><path d="M142,148.62l6.68,4.1-.72,1.18-6.68-4.11-13.19.14.62-1a.59.59,0,0,1,.24-.21,1.4,1.4,0,0,1,.32-.06l10.29-.06c.24,0,.47,0,.68,0l.62.1c-.13-.16-.25-.33-.37-.51a5.4,5.4,0,0,1-.34-.59l-4.59-9.19a.71.71,0,0,1-.1-.3.41.41,0,0,1,.08-.31l.63-1Z"/><path d="M301.65,143.08l-7.53,4.12-.66-1.21,16.65-9.09,2.32,4.25a7.91,7.91,0,0,1,1.24,4.91,4.44,4.44,0,0,1-2.49,3.21,5.2,5.2,0,0,1-1.92.62,4.73,4.73,0,0,1-1.9-.19,6,6,0,0,1-1.79-1,7.55,7.55,0,0,1-1.57-1.69,2.13,2.13,0,0,1-.19.76l-4.07,9.67-.58-1a.89.89,0,0,1-.1-.36,1.08,1.08,0,0,1,.09-.4l3.84-9a1.4,1.4,0,0,0,.13-.63,2.08,2.08,0,0,0-.28-.77Zm.89-.49,1.58,2.9a8.12,8.12,0,0,0,1.35,1.83,4.83,4.83,0,0,0,1.57,1.07,3.66,3.66,0,0,0,1.69.28,4.18,4.18,0,0,0,1.74-.54,3.49,3.49,0,0,0,2-2.6,6.43,6.43,0,0,0-1-3.86l-1.67-3Z"/><path d="M323.48,161.37l-1,.55-4.79-8.77L311,156.83l4,7.29-1,.54-4-7.3L303,161.15l4.79,8.77-1,.54-5.45-10L318,151.4Z"/><path d="M328,174.46a.38.38,0,0,1-.37-.19.83.83,0,0,1,0-.52,6,6,0,0,0,.05-2.21,5.21,5.21,0,0,0-.62-1.65,4.92,4.92,0,0,0-1.13-1.46,3.59,3.59,0,0,0-1.34-.77,3.42,3.42,0,0,0-1.42-.15,3.79,3.79,0,0,0-1.37.44,2.91,2.91,0,0,0-1.2,1.12,3.58,3.58,0,0,0-.42,1.46,6.59,6.59,0,0,0,.08,1.7c.09.59.2,1.2.31,1.82s.21,1.24.27,1.85a6.06,6.06,0,0,1-.05,1.76,4.13,4.13,0,0,1-.64,1.59,4.3,4.3,0,0,1-1.52,1.29,6.26,6.26,0,0,1-2.16.72,5.32,5.32,0,0,1-2.18-.17,5.41,5.41,0,0,1-2-1.08,7.85,7.85,0,0,1-2.59-5.2,7.65,7.65,0,0,1,.45-2.95l.7,0a.47.47,0,0,1,.36.23.56.56,0,0,1,0,.35c0,.16-.08.36-.13.59s-.1.5-.14.81a5.51,5.51,0,0,0,0,1,6.29,6.29,0,0,0,.2,1.19,6,6,0,0,0,.56,1.36,5.45,5.45,0,0,0,1.27,1.6,4.37,4.37,0,0,0,1.53.87,4,4,0,0,0,1.68.15,4.76,4.76,0,0,0,1.67-.55,3,3,0,0,0,1.26-1.16,3.46,3.46,0,0,0,.44-1.46,7,7,0,0,0-.09-1.69c-.1-.6-.21-1.2-.34-1.82s-.21-1.23-.28-1.83a6.14,6.14,0,0,1,.05-1.77,4,4,0,0,1,.67-1.6,4.5,4.5,0,0,1,1.59-1.33,4.81,4.81,0,0,1,1.78-.56,4.63,4.63,0,0,1,1.88.18,5.19,5.19,0,0,1,1.78,1,6.37,6.37,0,0,1,1.48,1.86,7.2,7.2,0,0,1,.86,2.55,6.48,6.48,0,0,1-.23,2.57Z"/><path d="M337.79,187.57l-1,.55L332,179.35,325.27,183l4,7.29-1,.54-4-7.3-6.94,3.79,4.79,8.77-1,.54-5.45-10,16.65-9.1Z"/><path d="M330.13,213.12l-.51-.93a.46.46,0,0,1-.06-.32.71.71,0,0,1,.14-.29l3.76-4.6L329,198.8l-5.9.69a.59.59,0,0,1-.32,0,.53.53,0,0,1-.24-.23l-.51-.92L342.4,196l.66,1.2Zm0-14.44,4.08,7.46,6.55-8c.1-.13.23-.26.36-.41l.45-.46-.63.13-.55.09Z"/><path d="M340,213.2l-7.53,4.11-.66-1.2L348.41,207l2.32,4.24a7.94,7.94,0,0,1,1.24,4.92,4.41,4.41,0,0,1-2.49,3.2,5,5,0,0,1-1.92.63,4.72,4.72,0,0,1-1.9-.2,5.65,5.65,0,0,1-1.79-.95,7.77,7.77,0,0,1-1.57-1.69,2.2,2.2,0,0,1-.2.76L338,227.59l-.57-1.05a.7.7,0,0,1-.1-.36.78.78,0,0,1,.09-.39l3.84-9a1.4,1.4,0,0,0,.13-.63,2.14,2.14,0,0,0-.28-.77Zm.89-.49,1.58,2.89a7.62,7.62,0,0,0,1.35,1.84,5,5,0,0,0,1.57,1.07,3.78,3.78,0,0,0,1.69.27,4.31,4.31,0,0,0,1.74-.53,3.51,3.51,0,0,0,2-2.61,6.44,6.44,0,0,0-1-3.86l-1.67-3Z"/><path d="M348.81,240.66a.36.36,0,0,1,0,.25l-.25.74a8.81,8.81,0,0,1-1.61-.58,8,8,0,0,1-1.49-.93,8.81,8.81,0,0,1-1.35-1.32,12.37,12.37,0,0,1-1.21-1.81,9.18,9.18,0,0,1-1.12-3.5,8,8,0,0,1,.37-3.41A8.91,8.91,0,0,1,344,227a11.62,11.62,0,0,1,3.19-2.5,11.1,11.1,0,0,1,3.78-1.29,9,9,0,0,1,3.6.2,8.48,8.48,0,0,1,3.15,1.63,9.82,9.82,0,0,1,2.43,3,11.63,11.63,0,0,1,.77,1.74,9.12,9.12,0,0,1,.38,1.61,7.61,7.61,0,0,1,0,1.58,11.76,11.76,0,0,1-.25,1.6l-.73-.07a.39.39,0,0,1-.3-.22.57.57,0,0,1,0-.34c0-.15.05-.35.08-.58s0-.52.07-.83a6,6,0,0,0-.07-1.08,7.65,7.65,0,0,0-.32-1.3,8.67,8.67,0,0,0-.68-1.54,8.16,8.16,0,0,0-2-2.5,7.18,7.18,0,0,0-2.69-1.38,8,8,0,0,0-3.14-.14,10.29,10.29,0,0,0-3.38,1.18A10.5,10.5,0,0,0,345,228a7.92,7.92,0,0,0-1.59,2.68,7,7,0,0,0-.31,2.92,7.67,7.67,0,0,0,.93,2.92,10.67,10.67,0,0,0,1,1.53,6.83,6.83,0,0,0,1.05,1.09,6.34,6.34,0,0,0,1.18.78,9.62,9.62,0,0,0,1.34.56l.14.07A.36.36,0,0,1,348.81,240.66Z"/><path d="M355.46,259.5l-.66-1.22,8-4.35-5.7-10.43-8,4.36-.67-1.21,16.65-9.09.66,1.21L358,243l5.69,10.42,7.77-4.24.66,1.22Z"/><polygon class="cls-1" points="222.12 6 152.94 125.82 291.29 125.82 222.12 6"/><polygon class="cls-1" points="5.2 381.71 118.21 381.71 118.21 362.31 326.02 362.31 326.02 381.71 439.04 381.71 380.18 279.77 64.06 279.77 5.2 381.71"/><polygon points="222.12 6 291.29 125.82 294.76 125.82 222.12 0 149.47 125.82 152.94 125.82 222.12 6"/><polygon points="5.2 381.71 64.06 279.77 60.59 279.77 0 384.71 118.21 384.71 118.21 381.71 5.2 381.71"/><polygon points="383.64 279.77 380.18 279.77 439.04 381.71 326.02 381.71 326.02 384.71 444.23 384.71 383.64 279.77"/></g></g></svg>